# xmcd
#
# Track frame offsets:
#	150
#	20475
#	40857
#	57050
#	79850
#	104025
#	125770
#	145222
#	162840
#	180715
#
# Disc length: 2752 seconds
#
# Revision: 1
# Processed by: cddbd v1.5PL3 Copyright (c) Steve Scherf et al.
# Submitted via: CDex 1.50Beta5
#
DISCID=870abe0a
DTITLE=ribbon - KNIGHT
DYEAR=1992
DGENRE=Pop
TTITLE0=WISH!
TTITLE1=太陽に火をつけて
TTITLE2=ぽかぽか愛してるの
TTITLE3=泣いたりもする
TTITLE4=もう一度会いたくて
TTITLE5=花柄のスリル
TTITLE6=世紀末の天使
TTITLE7=3つの願い
TTITLE8=Deep Breath
TTITLE9=あなたのそばに
EXTD=
EXTT0=
EXTT1=
EXTT2=
EXTT3=
EXTT4=
EXTT5=
EXTT6=
EXTT7=
EXTT8=
EXTT9=
PLAYORDER=
